<?xml version="1.0" standalone="no"?>
<!DOCTYPE svg PUBLIC "-//W3C//DTD SVG 20010904//EN"
 "http://www.w3.org/TR/2001/REC-SVG-20010904/DTD/svg10.dtd">
<svg version="1.0" xmlns="http://www.w3.org/2000/svg"
 width="1024.000000pt" height="1024.000000pt" viewBox="0 0 1024.000000 1024.000000"
 preserveAspectRatio="xMidYMid meet">
<metadata>
Created by potrace 1.16, written by Peter Selinger 2001-2019
</metadata>
<g transform="translate(0.000000,1024.000000) scale(0.100000,-0.100000)"
fill="#000000" stroke="none">
<path d="M5093 8714 c-14 -26 -49 -179 -68 -289 -28 -168 -46 -359 -52 -558
-3 -109 -9 -200 -13 -202 -4 -2 -26 82 -50 188 -104 467 -184 777 -201 777 -8
0 -9 -7 -31 -120 -21 -117 -14 -565 15 -890 14 -157 25 -286 23 -287 -1 -1
-19 62 -40 140 -125 458 -293 964 -323 974 -26 9 -31 -304 -9 -513 14 -134 47
-329 96 -579 15 -77 27 -141 26 -142 -1 -1 -37 82 -80 185 -133 315 -320 692
-377 762 l-21 25 7 -100 c14 -242 67 -471 212 -924 3 -9 -35 54 -84 139 -221
384 -375 619 -381 586 -9 -45 160 -588 244 -784 24 -58 43 -107 41 -109 -2 -2
-21 25 -43 59 -73 120 -307 453 -371 531 -66 78 -90 96 -77 55 88 -284 140
-420 264 -692 38 -83 62 -142 52 -131 -9 11 -55 68 -102 125 -184 228 -390
444 -390 409 0 -47 157 -405 238 -543 29 -48 52 -91 52 -94 0 -3 -48 41 -107
99 -113 110 -178 161 -253 199 -52 26 -100 42 -100 32 0 -16 86 -173 140 -257
l59 -89 -40 -43 c-21 -23 -53 -72 -71 -107 l-32 -64 52 -68 c29 -37 50 -69 48
-72 -3 -2 -27 15 -53 38 -58 51 -150 96 -217 104 l-48 6 6 -31 c10 -50 61
-148 130 -251 56 -84 63 -98 50 -109 -9 -7 -22 -25 -30 -40 -14 -27 -12 -31
41 -109 61 -90 61 -90 -48 -40 -34 15 -63 27 -65 25 -12 -12 101 -240 172
-347 l18 -28 -38 14 c-22 8 -63 23 -93 35 -29 12 -55 20 -56 19 -1 -2 35 -74
81 -161 86 -163 148 -261 192 -309 23 -25 20 -41 -4 -19 -17 17 -216 122 -221
117 -3 -2 33 -60 78 -128 97 -142 224 -279 359 -385 52 -42 103 -84 113 -95
25 -29 21 -45 -5 -21 -55 50 -102 55 -147 17 -67 -56 -22 -178 65 -178 22 0
51 3 66 8 22 7 27 4 33 -16 4 -12 22 -65 41 -116 19 -51 34 -99 34 -106 0 -10
-22 -4 -75 22 -53 25 -75 41 -75 54 0 95 -118 151 -201 95 -93 -62 -89 -203 7
-243 38 -16 90 -11 121 11 20 15 28 12 156 -63 l77 -45 0 -123 c0 -68 -2 -124
-4 -124 -3 0 -43 23 -90 51 -86 51 -86 52 -86 93 0 50 -21 83 -66 102 -48 20
-96 17 -135 -9 -90 -59 -88 -186 3 -233 28 -14 39 -15 81 -4 l48 12 99 -66
100 -67 -16 -37 c-9 -20 -34 -86 -57 -147 -22 -60 -42 -111 -43 -113 -1 -2
-35 14 -77 34 -71 35 -75 39 -80 76 -6 48 -21 66 -72 89 -145 65 -257 -145
-126 -238 28 -19 82 -21 114 -4 22 12 31 10 91 -24 36 -20 75 -44 87 -54 l22
-17 -38 -105 c-21 -57 -42 -108 -46 -112 -6 -8 -105 37 -143 66 -11 8 -21 30
-23 53 -4 42 -23 68 -65 90 -115 59 -246 -82 -178 -193 28 -46 53 -56 125 -51
61 5 63 5 143 -46 l81 -52 -40 -87 c-21 -48 -39 -91 -39 -97 0 -19 -32 -10
-101 27 -67 36 -69 38 -69 76 0 49 -32 82 -88 92 -124 21 -214 -135 -132 -229
38 -42 83 -53 138 -31 l40 16 68 -42 c38 -23 70 -42 72 -44 1 -1 -29 -58 -67
-126 -37 -68 -95 -179 -127 -246 l-59 -122 -151 0 c-137 -1 -154 -3 -178 -22
l-26 -20 0 -159 0 -158 -262 -6 c-297 -8 -621 -31 -650 -47 -48 -26 34 -44
237 -53 77 -3 241 -10 365 -16 124 -5 614 -17 1090 -26 1689 -32 4600 5 4918
62 32 6 43 28 18 37 -41 16 -581 47 -814 47 l-92 0 0 145 c0 151 -9 195 -45
209 -9 3 -83 6 -164 6 l-148 0 -127 252 -127 251 28 19 c15 10 45 28 66 39 36
19 39 19 87 2 46 -16 51 -16 84 0 78 37 99 132 46 205 -36 51 -88 69 -150 52
-48 -13 -82 -58 -74 -99 5 -24 -1 -29 -72 -66 -50 -26 -79 -36 -81 -28 -2 6
-22 48 -44 93 -21 45 -39 88 -39 95 0 8 35 34 79 58 72 41 83 44 131 39 66 -6
112 16 135 65 58 122 -117 254 -217 164 -28 -25 -33 -36 -33 -77 l-1 -48 -73
-39 c-43 -24 -76 -36 -82 -30 -11 11 -89 202 -89 220 0 7 37 31 82 54 81 41
83 41 133 29 44 -11 56 -10 82 4 50 25 73 62 73 115 0 166 -244 203 -254 38
-2 -29 -9 -35 -77 -68 -41 -20 -76 -35 -78 -33 -6 6 -121 298 -118 300 1 1 45
29 97 63 67 44 100 61 115 56 77 -22 137 -8 169 39 42 65 16 161 -54 198 -85
46 -190 -4 -190 -91 0 -37 -3 -41 -57 -74 -32 -19 -73 -42 -91 -51 l-33 -17 3
122 3 122 97 54 96 54 51 -16 c98 -33 166 20 166 128 0 56 -2 60 -42 98 -37
34 -48 39 -90 39 -75 0 -122 -39 -123 -101 0 -35 -3 -38 -81 -82 l-82 -46 6
43 c4 24 18 70 32 101 13 31 30 75 35 97 9 32 15 38 28 32 58 -25 139 -8 162
35 13 25 13 87 0 112 -12 22 -60 49 -88 49 -10 0 -38 -14 -60 -30 -23 -17 -42
-26 -42 -22 0 11 40 47 140 124 150 116 272 255 403 461 20 31 33 57 28 57
-12 0 -141 -72 -195 -108 l-44 -30 51 71 c59 80 239 437 221 437 -10 0 -97
-34 -171 -67 -7 -2 13 33 44 79 55 82 158 286 149 295 -8 9 -100 -26 -140 -53
l-38 -26 55 79 c29 43 57 86 60 95 3 10 -5 32 -19 54 -21 31 -23 39 -12 54 93
126 161 250 174 319 l7 34 -49 -7 c-60 -8 -153 -51 -216 -99 -27 -20 -48 -34
-48 -29 0 4 21 34 45 66 25 33 45 65 45 71 0 16 -69 122 -109 167 l-32 37 50
75 c51 74 141 245 141 265 0 18 -28 12 -93 -20 -87 -42 -192 -126 -289 -227
-45 -48 -72 -71 -60 -52 39 59 157 299 211 427 53 126 70 183 55 183 -23 0
-294 -293 -413 -447 -36 -46 -65 -83 -66 -83 -1 0 35 87 80 193 100 234 235
601 235 641 0 43 -256 -295 -425 -561 -32 -51 -60 -91 -62 -89 -2 1 9 29 23
62 35 79 97 252 140 394 127 411 134 440 117 440 -21 0 -306 -464 -418 -677
-27 -51 -50 -92 -51 -90 -2 2 10 45 27 97 109 347 187 690 196 860 4 89 3 94
-12 75 -72 -88 -378 -722 -435 -900 -13 -41 -38 -78 -26 -40 3 11 17 83 30
160 14 77 36 201 50 275 13 74 32 197 40 272 23 199 18 515 -8 521 -21 5 -206
-549 -307 -918 -21 -77 -43 -153 -48 -170 -9 -28 -9 -27 -5 10 50 477 63 970
30 1150 -18 101 -22 113 -31 103 -15 -15 -109 -382 -175 -683 -27 -126 -54
-243 -58 -260 l-9 -30 -6 40 c-4 22 -7 74 -7 115 0 99 -26 392 -45 528 -17
111 -71 356 -85 381 -6 12 -9 11 -17 -5z m53 -1135 c16 -17 55 -51 87 -76 31
-24 57 -49 57 -54 0 -6 -22 -32 -50 -59 -48 -47 -50 -51 -50 -105 0 -48 -3
-56 -16 -51 -9 3 -47 6 -85 6 l-69 0 0 48 c0 45 -4 52 -55 104 l-56 56 57 44
c32 23 76 60 98 80 23 21 44 38 47 38 3 0 18 -14 35 -31z m26 -470 c35 -28 73
-56 86 -62 25 -12 30 -45 7 -53 -8 -4 -33 3 -54 13 l-40 20 14 -21 c15 -21 21
-81 8 -74 -91 43 -102 52 -108 90 -4 21 -9 38 -12 38 -2 0 -24 -13 -48 -30
-24 -16 -48 -30 -54 -30 -15 0 -14 -6 5 -35 9 -14 14 -25 11 -25 -2 0 -17 19
-32 41 -22 35 -25 44 -13 55 27 26 153 124 160 124 5 0 36 -23 70 -51z m-362
-99 c0 -15 -21 -51 -47 -80 -18 -21 -21 -31 -14 -61 l8 -37 -46 -5 c-25 -3
-56 -9 -68 -12 -16 -5 -22 -2 -26 12 -4 15 -5 14 -6 -4 -2 -43 -29 -26 -37 23
-5 36 -12 47 -31 55 -19 7 -24 15 -21 36 2 20 12 29 43 40 93 33 245 53 245
33z m740 -6 c133 -31 140 -33 140 -56 0 -11 -11 -30 -24 -42 -13 -11 -29 -39
-35 -61 l-11 -41 -80 15 -80 15 0 47 c0 39 -5 51 -25 67 -15 12 -25 30 -25 46
0 23 4 26 38 26 20 0 66 -7 102 -16z m-1151 -111 c14 -48 14 -63 1 -63 -5 0
-10 4 -10 9 0 19 -99 -16 -133 -47 -18 -16 -19 -16 -16 3 3 11 10 20 17 20 6
0 11 4 10 10 -3 8 -27 9 -36 0 -1 -1 -4 -16 -5 -34 -3 -40 -22 -40 -42 0 -21
40 -12 50 79 94 119 56 122 56 135 8z m1549 -8 c51 -24 92 -49 92 -55 0 -22
-31 -70 -45 -70 -7 0 -16 9 -20 20 -3 11 -9 19 -13 18 -4 -1 -25 8 -48 19 -31
17 -44 19 -53 10 -8 -8 -11 -7 -11 6 0 21 -16 22 -24 1 -9 -24 -24 -7 -19 23
14 90 15 90 141 28z m-791 -42 l62 -28 -1 -178 c-2 -174 -8 -213 -27 -163 -6
13 -20 28 -33 32 -39 12 -98 53 -98 68 0 12 10 11 55 -5 71 -25 75 -24 75 10
0 33 -44 78 -98 100 -20 8 -32 21 -32 32 0 24 16 24 75 -2 25 -11 48 -19 49
-17 2 1 1 23 -2 47 -4 41 -7 45 -53 65 -47 21 -65 39 -53 57 8 13 13 12 81
-18z m301 -74 c93 -22 170 -50 176 -65 14 -38 -22 -45 -69 -14 -16 11 -33 20
-37 20 -5 0 -8 -21 -8 -46 0 -52 -19 -134 -31 -134 -4 0 -11 5 -15 12 -4 7 -3
8 4 4 20 -12 13 8 -8 27 -19 16 -19 19 -5 55 9 20 23 47 31 60 13 20 13 23 -1
28 -8 4 -30 3 -49 0 -41 -8 -66 1 -66 23 0 15 18 41 28 41 2 0 24 -5 50 -11z
m416 -21 c-6 -19 -5 -21 8 -11 8 7 18 10 21 7 8 -8 -61 -198 -73 -202 -6 -2
-8 -8 -5 -13 4 -5 1 -17 -5 -26 -9 -15 -10 -14 -4 6 4 14 2 21 -3 18 -6 -4 -8
4 -5 19 3 17 9 23 19 20 8 -3 11 -1 8 5 -4 5 -1 17 7 26 9 12 9 15 1 9 -7 -4
-13 -3 -13 3 0 5 5 13 10 16 6 4 8 11 5 16 -4 5 -1 9 4 9 6 0 11 5 11 10 0 30
-21 1 -49 -67 -24 -59 -28 -79 -19 -85 9 -5 5 -8 -10 -8 -12 0 -25 7 -28 15
-4 9 16 69 42 135 37 92 53 120 67 120 14 0 17 -5 11 -22z m-2293 -175 c20
-21 95 -111 168 -200 73 -89 136 -165 142 -168 5 -4 9 -10 9 -15 0 -8 -68 -54
-81 -55 -11 0 -189 207 -184 216 6 8 -102 129 -115 129 -3 0 -25 -16 -48 -36
-38 -32 -43 -34 -62 -21 -21 14 -19 17 51 101 39 47 75 86 78 86 4 0 23 -17
42 -37z m3158 -43 c60 -68 85 -110 67 -110 -2 0 -11 -2 -19 -5 -8 -4 -33 10
-56 30 -24 19 -49 35 -56 35 -8 0 -42 -39 -77 -86 -35 -48 -97 -125 -137 -173
-41 -47 -76 -88 -78 -90 -2 -3 -8 0 -15 7 -11 11 -9 14 109 152 26 30 35 44
20 30 -16 -14 -54 -55 -85 -92 -31 -38 -58 -68 -62 -68 -3 0 -13 7 -24 15 -17
13 -12 21 81 132 55 65 132 160 172 211 40 50 76 92 80 92 5 0 40 -36 80 -80z
m-594 31 c58 -27 125 -79 125 -96 0 -9 -9 -34 -21 -56 -16 -32 -23 -38 -33
-30 -8 6 -46 27 -85 46 l-71 35 0 54 c0 70 16 79 85 47z m-1996 -18 c-3 -72
-11 -84 -89 -128 -47 -27 -79 -40 -86 -34 -6 5 -16 27 -23 50 -11 37 -11 44 6
60 32 32 127 79 161 79 29 0 32 -3 31 -27z m409 -96 c2 -17 -2 -29 -11 -33
-11 -4 -6 -21 24 -82 42 -82 47 -102 26 -102 -13 0 -87 140 -87 165 0 20 -4
19 -70 -14 -57 -29 -89 -28 -77 2 6 16 165 98 182 93 6 -1 11 -15 13 -29z
m1218 -17 c48 -21 64 -34 64 -49 0 -11 -4 -23 -10 -26 -12 -7 -72 23 -66 33 3
5 -15 16 -40 25 -43 16 -57 10 -30 -12 12 -10 10 -20 -11 -62 -34 -71 -71
-129 -83 -129 -16 0 -12 15 28 108 28 64 36 93 29 104 -6 8 -7 23 -3 33 8 21
32 16 122 -25z m-1429 -237 c8 -21 37 -75 64 -119 50 -84 65 -129 27 -84 -11
14 -32 39 -45 55 -14 17 -23 22 -19 13 3 -10 1 -18 -4 -18 -6 0 -10 5 -10 11
0 5 -5 7 -12 3 -8 -5 -9 -2 -5 10 4 9 3 15 -2 11 -6 -3 -22 11 -37 30 -26 35
-26 36 -8 51 18 14 17 14 -6 3 -14 -7 -40 -23 -57 -37 -33 -24 -63 -24 -63 0
0 12 135 106 153 107 4 1 15 -16 24 -36z m1618 -9 c41 -26 75 -50 75 -54 0 -4
-7 -13 -15 -20 -12 -10 -20 -9 -40 4 -14 9 -24 20 -21 24 2 4 -6 8 -17 8 -12
1 -31 5 -42 8 -17 5 -26 -4 -55 -55 -35 -63 -99 -142 -99 -124 -1 6 13 34 29
63 17 28 43 76 60 105 16 28 30 60 30 70 0 25 12 22 95 -29z m-2495 -10 c20
-21 22 -27 10 -34 -8 -5 -17 -7 -21 -4 -4 2 -13 -4 -20 -14 -13 -15 -12 -16 3
-4 15 12 17 11 15 -14 -1 -20 4 -31 21 -40 24 -12 44 -36 54 -65 4 -11 0 -15
-15 -14 -21 2 -77 60 -77 82 0 27 -21 22 -51 -11 -34 -39 -45 -42 -73 -21 -17
13 -15 18 45 89 35 42 69 76 75 76 6 0 21 -11 34 -26z m1830 -49 c116 -15 231
-38 273 -54 27 -10 27 -11 27 -107 0 -88 -2 -96 -17 -89 -10 4 -26 10 -35 12
-14 4 -18 16 -18 53 0 38 -4 50 -17 54 -29 9 -220 36 -254 36 -16 0 -40 6 -52
12 -21 12 -21 13 13 19 21 4 -5 6 -65 6 -60 0 -86 -2 -65 -6 32 -6 33 -7 10
-12 -54 -13 -100 -10 -100 6 0 8 -8 15 -17 14 -10 0 -13 -3 -6 -5 26 -11 0
-34 -38 -34 -42 0 -232 -35 -250 -46 -6 -3 -8 -20 -5 -38 3 -17 2 -36 -2 -41
-6 -9 -56 -35 -67 -35 -3 0 -5 42 -5 94 l0 94 43 16 c151 55 444 79 647 51z
m-1370 -66 c0 -13 79 -116 111 -146 l24 -22 65 40 c79 47 99 50 98 12 0 -16 7
-45 16 -67 16 -39 21 -88 10 -99 -4 -4 -23 17 -43 46 -46 65 -65 70 -86 21
-20 -49 -19 -66 8 -100 18 -24 14 -22 -25 11 -27 21 -49 44 -50 50 0 5 -2 16
-2 22 -1 7 -22 34 -47 60 -25 27 -66 73 -91 103 l-46 55 22 16 c21 17 36 16
36 -2z m2389 2 c21 -13 -9 -56 -110 -158 -46 -47 -79 -84 -74 -83 24 5 34 -1
28 -17 -4 -11 -3 -14 5 -9 17 10 15 -9 -2 -23 -10 -9 -16 -8 -25 3 -7 8 -21
13 -32 11 -14 -3 -19 1 -17 12 3 18 -59 66 -73 57 -5 -3 -19 -24 -30 -47 l-21
-41 -14 25 c-11 21 -10 32 2 68 8 23 15 53 16 67 4 47 22 49 96 8 l70 -37 33
27 c19 14 54 53 79 85 49 65 49 65 69 52z m-2654 -38 c4 -13 -4 -26 -30 -47
l-36 -29 80 -81 c54 -55 78 -85 72 -94 -5 -9 -27 7 -76 57 -38 38 -72 68 -76
65 -4 -2 -5 5 -2 16 8 30 -11 24 -46 -15 -17 -20 -31 -33 -31 -29 0 3 -7 1
-15 -6 -12 -10 -19 -10 -28 -1 -8 8 6 29 63 88 101 105 111 110 125 76z m2940
-10 c9 -16 31 -39 48 -52 18 -14 45 -40 60 -58 l29 -33 -24 -9 c-20 -8 -28 -4
-61 32 -29 31 -40 38 -44 27 -4 -8 -22 -28 -41 -45 -20 -16 -55 -48 -79 -69
-77 -69 -55 -33 32 54 l85 84 -22 23 c-12 13 -27 23 -35 23 -16 0 -17 22 -1
38 19 19 36 14 53 -15z m-1327 -1795 c-3 -1598 -5 -1717 -21 -1773 -21 -71
-72 -182 -113 -245 l-29 -45 -6 185 c-4 102 -10 289 -14 415 -7 239 -9 260
-24 251 -15 -10 -19 15 -14 97 5 72 4 79 -13 75 -15 -2 -24 -34 -53 -183 l-36
-180 -5 1550 c-3 853 -4 1552 -2 1555 5 8 56 -58 104 -132 24 -37 45 -67 48
-67 3 0 25 28 50 62 61 85 113 147 122 147 5 0 7 -771 6 -1712z m-1800 1550
c11 -18 85 -102 166 -187 81 -86 146 -163 146 -173 0 -18 -2 -18 -22 -4 -12 9
-91 84 -175 166 -84 83 -153 147 -154 143 -4 -46 -16 -64 -29 -43 -7 11 -11
11 -24 1 -8 -7 -13 -18 -10 -26 10 -24 -13 -25 -36 -1 -25 27 -25 28 35 104
48 62 74 66 103 20z m3361 -24 c51 -55 51 -57 34 -78 -10 -11 -19 -23 -20 -25
-2 -2 -12 4 -23 14 -11 10 -17 21 -15 25 3 4 -54 -52 -126 -124 -72 -72 -127
-124 -123 -116 14 25 15 45 1 31 -14 -14 -57 -14 -57 0 0 6 -18 -4 -41 -23
-68 -55 -89 -70 -89 -64 0 4 66 75 146 159 80 84 164 175 187 204 23 29 49 52
58 53 10 0 40 -25 68 -56z m-2339 -3 c14 -10 34 -38 45 -62 11 -24 71 -144
132 -266 62 -121 113 -224 113 -228 0 -3 -18 14 -40 40 -42 49 -80 111 -167
271 -61 113 -105 174 -98 137 3 -16 -3 -23 -20 -27 -16 -4 -23 -13 -22 -26 1
-21 17 -29 17 -8 0 6 3 8 7 5 3 -4 -2 -16 -12 -27 -20 -22 -73 -35 -102 -26
-47 15 -69 116 -38 175 19 37 90 74 130 66 17 -3 41 -14 55 -24z m1328 10 c55
-28 74 -55 79 -108 7 -67 -26 -117 -80 -121 -33 -3 -43 2 -71 32 -18 20 -35
36 -39 36 -4 0 -16 -17 -27 -37 -18 -33 -20 -34 -15 -10 3 15 3 27 1 27 -12 0
-46 -71 -40 -82 4 -7 4 -10 -1 -6 -4 4 -37 -41 -72 -99 -63 -106 -150 -233
-158 -233 -11 0 20 64 121 255 38 72 87 169 108 217 61 138 111 171 194 129z
m-1678 -217 c19 -49 4 -94 -32 -94 -7 0 -31 -20 -55 -45 -23 -25 -46 -45 -51
-45 -18 0 -43 38 -49 74 -12 78 42 136 130 136 42 0 49 -3 57 -26z m2062 -13
c22 -25 28 -41 28 -79 0 -27 -7 -57 -14 -68 -15 -19 -16 -18 -72 11 -64 34
-69 41 -55 78 8 20 7 25 -3 21 -7 -3 -18 -15 -23 -27 l-10 -22 -11 22 c-9 16
-9 29 0 55 15 44 25 50 82 45 40 -4 55 -10 78 -36z m-1674 -372 c23 -8 51 -41
115 -132 88 -128 145 -216 167 -257 23 -45 -136 137 -244 278 -27 35 -52 59
-58 56 -6 -4 -8 -3 -5 3 3 5 -3 17 -14 26 -11 10 -17 22 -14 27 8 13 15 12 53
-1z m1191 4 c-1 -16 -108 -217 -108 -205 -1 7 -5 11 -9 8 -4 -2 -13 -1 -20 3
-9 5 -8 12 4 27 15 19 15 19 9 -2 -3 -14 -1 -21 9 -21 8 0 13 9 12 22 0 12 -7
22 -14 22 -8 0 -63 -63 -124 -139 -101 -128 -144 -174 -104 -113 10 14 30 47
45 73 83 141 205 312 230 321 32 12 71 14 70 4z m-1298 -390 c31 -19 57 -65
66 -117 l5 -34 -68 5 c-38 3 -72 10 -75 16 -4 6 -22 7 -45 2 -59 -12 -59 -12
-93 -20 -35 -7 -39 3 -21 64 27 96 141 137 231 84z m1481 17 c55 -16 98 -70
98 -125 l0 -45 -42 1 c-24 1 -34 4 -23 6 15 4 9 9 -25 19 -51 16 -92 18 -105
6 -6 -5 -22 -13 -37 -20 -24 -10 -26 -9 -22 6 5 15 4 15 -6 0 -6 -10 -18 -18
-27 -18 -13 0 -15 8 -10 41 7 52 52 110 98 126 43 15 55 15 101 3z m-1875
-154 c15 -13 26 -26 23 -28 -3 -1 -23 -12 -44 -23 -50 -26 -76 -61 -83 -113
-5 -34 -8 -40 -19 -31 -20 16 -17 -1 3 -24 17 -18 17 -18 -9 -7 -33 15 -48 49
-48 106 0 114 103 183 177 120z m2251 -1 c63 -53 77 -152 29 -203 -48 -52 -55
-48 -53 28 1 63 -1 71 -28 99 -16 16 -42 33 -57 36 -35 8 -35 12 -7 42 29 31
78 30 116 -2z m-233 -146 c67 -20 75 -30 75 -97 l0 -33 -27 19 c-36 25 -78 39
-68 22 5 -9 1 -10 -16 -6 -13 4 -6 -3 16 -15 22 -12 52 -33 68 -47 25 -24 27
-31 26 -101 -1 -65 -2 -70 -9 -36 -9 49 -78 115 -137 133 -84 25 -212 3 -265
-45 -16 -15 -18 -15 -18 0 0 30 59 84 118 108 31 12 59 26 62 29 3 4 12 10 20
13 27 10 -84 7 -125 -4 -83 -22 -85 -22 -85 -7 0 29 68 76 130 89 51 11 163 1
235 -22z m-1633 11 c39 -11 98 -54 98 -72 0 -6 -16 -8 -42 -4 -24 3 -61 8 -83
11 -23 3 -70 1 -105 -5 -36 -6 -79 -12 -96 -14 -39 -5 -74 -23 -74 -38 0 -6
-3 -8 -7 -5 -3 4 -12 2 -20 -4 -10 -9 -13 -3 -13 32 0 24 4 49 8 56 7 11 68
38 107 46 40 9 191 7 227 -3z m-57 -101 c62 -17 150 -87 132 -105 -2 -2 -32 8
-67 23 -53 21 -75 25 -129 21 -101 -7 -182 -58 -217 -133 -13 -30 -13 -30 -14
22 0 45 5 58 32 88 34 40 88 71 145 84 53 13 72 12 118 0z m155 -309 l0 -40
-96 0 -96 0 30 -34 c49 -56 151 -216 137 -216 -2 0 -25 26 -50 58 -26 31 -66
74 -90 94 l-43 38 9 -38 c5 -20 8 -179 7 -352 0 -173 -3 -305 -5 -292 -3 17
-11 22 -34 22 -27 0 -29 2 -29 40 0 22 -4 40 -9 40 -14 0 -20 -71 -27 -313 -3
-119 -10 -219 -14 -222 -4 -2 -10 24 -13 58 -5 50 -10 720 -7 1115 l0 82 165
0 165 0 0 -40z m1510 -233 c0 -151 -3 -437 -7 -636 -5 -292 -9 -359 -19 -349
-9 9 -14 81 -19 253 -7 231 -21 417 -24 318 -1 -32 -5 -43 -17 -43 -11 0 -14
-5 -10 -16 3 -9 1 -43 -6 -74 -8 -43 -16 -58 -27 -57 -14 1 -16 34 -18 281 -2
155 1 318 5 364 4 45 4 82 0 82 -5 0 -35 -27 -68 -61 -77 -78 -57 -26 37 98
l25 33 -96 0 -96 0 0 40 0 40 170 0 170 0 0 -273z m-1984 -215 c6 -4 11 -22
11 -40 0 -18 -3 -28 -7 -22 -4 6 -27 -38 -53 -97 -25 -59 -57 -134 -71 -165
-18 -40 -22 -59 -14 -64 6 -4 8 -3 5 3 -7 11 31 78 40 70 5 -6 -192 -395 -210
-412 -7 -7 -8 -4 -4 8 4 11 3 16 -4 12 -5 -4 -7 -15 -4 -25 5 -16 -90 -207
-132 -265 -14 -19 -15 -19 -8 5 7 24 7 24 -9 5 -8 -11 -16 -23 -16 -27 0 -4
-21 -41 -46 -83 -25 -41 -42 -80 -38 -86 4 -7 3 -9 -4 -6 -5 4 -24 -12 -41
-35 -17 -23 -31 -39 -31 -36 0 8 125 289 139 315 6 10 107 217 225 461 118
244 222 455 231 468 16 25 23 28 41 16z m2276 -254 c171 -343 448 -914 464
-962 13 -35 13 -37 -2 -25 -15 12 -16 11 -10 -11 6 -19 5 -21 -3 -10 -6 8 -8
22 -6 30 6 19 -50 106 -59 91 -4 -6 0 -14 8 -17 9 -3 14 -10 11 -14 -3 -5 -1
-11 5 -15 5 -3 10 -11 10 -17 0 -12 -31 26 -50 61 -10 19 -10 22 2 16 7 -4 2
3 -12 14 -18 16 -20 19 -6 15 10 -4 17 -3 14 2 -2 5 -12 26 -21 47 -10 20 -22
37 -28 37 -8 0 -7 -6 2 -17 11 -15 9 -14 -9 1 -30 26 -95 144 -86 158 4 7 3 8
-4 4 -7 -4 -22 14 -39 46 -37 71 -45 90 -33 83 6 -3 10 -13 10 -22 0 -9 3 -14
6 -10 11 10 -7 47 -23 47 -9 0 -13 6 -10 15 4 8 1 17 -5 21 -7 4 -8 3 -4 -4 4
-7 5 -12 2 -12 -3 0 -13 15 -21 33 -10 19 -11 26 -3 17 31 -35 33 -15 4 40
-17 32 -35 56 -40 53 -5 -4 -6 -1 -2 6 8 12 -62 151 -76 151 -4 0 -9 12 -9 28
-2 27 -2 27 -7 2 -4 -23 -7 -20 -27 25 l-23 50 -7 -78 c-4 -47 -3 -114 4 -168
17 -136 59 -255 195 -551 14 -32 24 -58 22 -58 -12 0 -95 137 -136 223 -61
131 -102 259 -134 425 -34 172 -40 366 -12 401 8 11 8 13 0 8 -8 -4 -12 1 -11
16 0 12 -3 34 -7 50 -7 24 -6 27 15 27 21 0 39 -29 151 -252z m-651 -353 c79
-77 201 -183 269 -235 146 -111 270 -231 327 -315 71 -107 67 -112 -18 -24
-99 100 -162 155 -319 271 -201 150 -316 261 -428 413 -39 53 -92 145 -92 160
0 3 26 -25 59 -62 32 -38 123 -131 202 -208z m-897 223 c-77 -151 -267 -352
-526 -558 -155 -123 -209 -171 -203 -181 3 -5 0 -7 -7 -4 -7 3 -26 -11 -43
-31 -16 -20 -52 -55 -80 -78 l-49 -41 23 40 c88 147 158 219 391 404 145 115
394 350 460 435 41 53 57 60 34 14z m-751 -19 c12 -8 -25 -230 -54 -332 -32
-109 -177 -402 -209 -422 -4 -3 26 73 67 168 41 94 83 199 94 232 17 52 58
236 61 273 1 6 5 12 10 12 4 0 8 24 9 53 0 28 3 45 6 37 3 -8 10 -18 16 -21z
m1462 -675 c117 -98 359 -247 568 -351 147 -72 131 -75 -43 -6 -144 56 -269
124 -386 211 -105 77 -214 175 -214 192 0 14 13 7 75 -46z m-706 29 c-22 -33
-174 -164 -254 -219 -134 -92 -392 -215 -449 -214 -6 0 34 24 89 54 240 127
387 219 540 335 44 33 81 61 83 61 1 0 -3 -8 -9 -17z m2545 -606 c53 -35 30
-41 -195 -55 -165 -11 -638 -14 -2054 -15 -1012 -1 -1923 2 -2025 7 -169 7
-186 10 -187 26 -3 37 27 49 137 53 58 2 1048 3 2200 3 2007 -1 2097 -2 2124
-19z"/>
<path d="M4960 5813 c0 -5 12 -20 26 -34 15 -13 44 -60 65 -104 l38 -80 1
-594 c0 -327 2 -597 5 -599 3 -3 5 267 5 600 l0 605 -35 69 c-33 65 -105 159
-105 137z"/>
</g>
</svg>
