<?xml version="1.0" standalone="no"?>
<!DOCTYPE svg PUBLIC "-//W3C//DTD SVG 20010904//EN"
 "http://www.w3.org/TR/2001/REC-SVG-20010904/DTD/svg10.dtd">
<svg version="1.0" xmlns="http://www.w3.org/2000/svg"
 width="512.000000pt" height="512.000000pt" viewBox="0 0 512.000000 512.000000"
 preserveAspectRatio="xMidYMid meet">

<g transform="translate(0.000000,512.000000) scale(0.100000,-0.100000)"
fill="#000000" stroke="none">
<path d="M1385 4586 l-1170 -532 0 -1494 0 -1494 1173 -533 1173 -533 1172
533 1172 532 0 1495 0 1494 -1170 533 c-643 293 -1172 532 -1175 532 -3 0
-531 -240 -1175 -533z m1962 -292 c431 -196 782 -358 781 -359 -2 -2 -355
-163 -785 -359 l-782 -355 -783 356 c-431 195 -784 356 -786 358 -2 2 1558
714 1567 715 2 0 357 -160 788 -356z m-1834 -1066 l837 -380 0 -1140 c0 -1082
-1 -1140 -17 -1134 -10 4 -395 178 -855 388 l-838 380 0 1140 c0 1082 1 1140
18 1134 9 -4 394 -178 855 -388z m2965 -748 l-3 -1141 -835 -380 c-459 -208
-843 -382 -852 -385 -17 -5 -18 53 -18 1134 l0 1140 848 385 c466 213 850 386
855 387 4 0 6 -513 5 -1140z"/>
</g>
</svg>
